<svg xmlns="http://www.w3.org/2000/svg" width="156" height="200" viewBox="0 0 156 200" fill="none">
  <g clip-path="url(#clip0_0_205)">
    <mask id="mask0_0_205" style="mask-type:luminance" maskUnits="userSpaceOnUse" x="-44" y="0" width="200" height="200">
      <path d="M56 200C54.6446 200.002 53.312 199.651 52.1336 198.981C50.9552 198.311 49.9716 197.346 49.28 196.18C37.5602 176.5 28.0002 169.18 13.6204 169.18C6.61 169.387 -0.336998 170.572 -7.0196 172.7C-8.3626 173.087 -9.7848 173.107 -11.1382 172.758C-12.4916 172.409 -13.7266 171.704 -14.715 170.716C-15.7032 169.727 -16.4086 168.492 -16.7576 167.139C-17.1066 165.785 -17.0866 164.363 -16.6994 163.02C-12.4394 148.34 -12.0594 138.18 -15.4594 130.12C-18.8594 122.06 -26.4594 114.88 -40.1793 106.72C-41.3438 106.027 -42.3082 105.044 -42.978 103.865C-43.6478 102.687 -44 101.356 -44 100C-44 98.6452 -43.6478 97.3134 -42.978 96.1352C-42.3082 94.9572 -41.3438 93.9734 -40.1793 93.2804C-26.4594 85.1204 -18.8394 78.0004 -15.4594 69.8804C-12.0794 61.7606 -12.4394 51.6606 -16.6994 36.9806C-17.0866 35.6376 -17.1066 34.2154 -16.7576 32.862C-16.4086 31.5086 -15.7032 30.2734 -14.715 29.2852C-13.7266 28.2968 -12.4916 27.5914 -11.1382 27.2424C-9.7848 26.8934 -8.3626 26.9136 -7.0196 27.3006C-0.336998 29.429 6.61 30.6138 13.6204 30.8206C27.9002 30.8206 37.6202 23.5006 49.28 3.82074C49.973 2.6562 50.9568 1.69176 52.135 1.02196C53.313 0.352162 54.6448 0 56 0C57.3552 0 58.687 0.352162 59.865 1.02196C61.0432 1.69176 62.027 2.6562 62.72 3.82074C74.4398 23.5006 84.0998 30.8206 98.3796 30.8206C105.39 30.6138 112.337 29.429 119.02 27.3006C120.363 26.9136 121.785 26.8934 123.138 27.2424C124.492 27.5914 125.727 28.2968 126.715 29.2852C127.703 30.2734 128.409 31.5086 128.758 32.862C129.107 34.2154 129.087 35.6376 128.699 36.9806C124.439 51.6606 124.059 61.8206 127.459 69.8804C130.859 77.9404 138.459 85.1204 152.179 93.2804C153.344 93.9734 154.308 94.9572 154.978 96.1352C155.648 97.3134 156 98.6452 156 100C156 101.356 155.648 102.687 154.978 103.865C154.308 105.044 153.344 106.027 152.179 106.72C138.459 114.88 130.839 122.1 127.459 130.12C124.079 138.14 124.439 148.12 128.579 162.66C128.861 163.47 129.003 164.322 128.999 165.18C129 167.227 128.198 169.192 126.766 170.654C125.334 172.116 123.386 172.958 121.34 173C120.555 173.019 119.773 172.918 119.02 172.7C112.337 170.572 105.39 169.387 98.3796 169.18C84.0998 169.18 74.3798 176.5 62.72 196.18C62.0284 197.346 61.0448 198.311 59.8664 198.981C58.688 199.651 57.3554 200.002 56 200Z" fill="white"/>
    </mask>
    <g mask="url(#mask0_0_205)">
      <path d="M56 200C54.6446 200.002 53.312 199.651 52.1336 198.981C50.9552 198.311 49.9716 197.346 49.28 196.18C37.5602 176.5 28.0002 169.18 13.6204 169.18C6.61 169.387 -0.337 170.572 -7.0196 172.7C-8.3626 173.087 -9.7848 173.107 -11.1382 172.758C-12.4916 172.409 -13.7266 171.704 -14.715 170.716C-15.7032 169.727 -16.4086 168.492 -16.7576 167.139C-17.1066 165.785 -17.0866 164.363 -16.6994 163.02C-12.4394 148.34 -12.0594 138.18 -15.4594 130.12C-18.8594 122.06 -26.4594 114.88 -40.1793 106.72C-41.3438 106.027 -42.3082 105.044 -42.978 103.865C-43.6478 102.687 -44 101.356 -44 100C-44 98.6452 -43.6478 97.3134 -42.978 96.1352C-42.3082 94.9572 -41.3438 93.9734 -40.1793 93.2804C-26.4594 85.1204 -18.8394 78.0004 -15.4594 69.8804C-12.0794 61.7606 -12.4394 51.6606 -16.6994 36.9806C-17.0866 35.6376 -17.1066 34.2154 -16.7576 32.862C-16.4086 31.5086 -15.7032 30.2734 -14.715 29.2852C-13.7266 28.2968 -12.4916 27.5914 -11.1382 27.2424C-9.7848 26.8934 -8.3626 26.9136 -7.0196 27.3006C-0.337 29.429 6.61 30.6138 13.6204 30.8206C27.9002 30.8206 37.6202 23.5006 49.28 3.82074C49.973 2.6562 50.9568 1.69176 52.135 1.02196C53.313 0.352162 54.6448 0 56 0C57.3552 0 58.687 0.352162 59.865 1.02196C61.0432 1.69176 62.027 2.6562 62.72 3.82074C74.4398 23.5006 84.0998 30.8206 98.3796 30.8206C105.39 30.6138 112.337 29.429 119.02 27.3006C120.363 26.9136 121.785 26.8934 123.138 27.2424C124.492 27.5914 125.727 28.2968 126.715 29.2852C127.703 30.2734 128.409 31.5086 128.758 32.862C129.107 34.2154 129.087 35.6376 128.699 36.9806C124.439 51.6606 124.059 61.8206 127.459 69.8804C130.859 77.9404 138.459 85.1204 152.179 93.2804C153.344 93.9734 154.308 94.9572 154.978 96.1352C155.648 97.3134 156 98.6452 156 100C156 101.356 155.648 102.687 154.978 103.865C154.308 105.044 153.344 106.027 152.179 106.72C138.459 114.88 130.839 122.1 127.459 130.12C124.079 138.14 124.439 148.12 128.579 162.66C128.861 163.47 129.003 164.322 128.999 165.18C129 167.227 128.198 169.192 126.766 170.654C125.334 172.116 123.386 172.958 121.34 173C120.555 173.019 119.773 172.918 119.02 172.7C112.337 170.572 105.39 169.387 98.3796 169.18C84.0998 169.18 74.3798 176.5 62.72 196.18C62.0284 197.346 61.0448 198.311 59.8664 198.981C58.688 199.651 57.3554 200.002 56 200Z" stroke="#FF9E31" stroke-width="6"/>
    </g>
  </g>
  <defs>
    <clipPath id="clip0_0_205">
      <rect width="200" height="200" fill="white" transform="translate(-44)"/>
    </clipPath>
  </defs>
</svg>