<svg xmlns="http://www.w3.org/2000/svg" width="158" height="269" viewBox="0 0 158 269" fill="none">
  <path d="M76.5434 74.9628L93.1203 72.5453C96.2663 72.0868 97.5129 68.2159 95.2298 65.995L83.1997 54.294C82.753 53.8596 82.4184 53.3233 82.2246 52.7312C82.0308 52.1391 81.9837 51.5091 82.0874 50.8954L84.8773 34.3664C85.4069 31.2296 82.1109 28.8386 79.2993 30.3205L64.4872 38.1295C63.9374 38.4194 63.325 38.5711 62.7029 38.5713C62.0809 38.5715 61.4677 38.4203 60.9164 38.1308L46.0636 30.3334C43.2448 28.8536 39.961 31.2468 40.5066 34.3834L43.3821 50.9104C43.4889 51.5239 43.445 52.1539 43.2543 52.746C43.0636 53.3381 42.7318 53.8746 42.2875 54.3093L30.3181 66.0187C28.0466 68.2408 29.313 72.1109 32.4616 72.5677L49.051 74.9731C49.6669 75.0624 50.2522 75.3002 50.7565 75.6659C51.2607 76.0317 51.6689 76.5144 51.9457 77.0726L59.4009 92.1078C60.816 94.9612 64.8825 94.9594 66.2826 92.1053L73.6599 77.0649C73.9335 76.5064 74.339 76.0231 74.8414 75.6569C75.3437 75.2907 75.9279 75.0525 76.5434 74.9628Z" fill="#FFD15B"/>
  <path d="M84.8772 34.367C85.4068 31.2302 82.1108 28.8393 79.2992 30.3211L64.4871 38.1301C63.9373 38.4201 63.3249 38.5717 62.7028 38.5719C62.0808 38.5722 61.4676 38.421 60.9163 38.1314L46.0637 30.3333C43.2448 28.8535 39.961 31.2467 40.507 34.383L41.9906 42.9082C42.4818 42.7362 43.0035 42.6682 43.5228 42.7085C44.0421 42.7488 44.5477 42.8966 45.0074 43.1424L50.0368 46.0604C50.5882 46.3499 51.2013 46.501 51.8234 46.5008C52.4454 46.5005 53.0578 46.349 53.6076 46.0591L68.4197 38.2501C71.2306 36.7681 74.527 39.1588 73.9977 42.296L71.2078 58.8251C71.1042 59.4387 71.1514 60.0687 71.3451 60.6608C71.5389 61.2528 71.8735 61.7892 72.3201 62.2236L80.7759 70.5637C81.8289 71.588 82.1232 72.9612 81.8349 74.1911L93.121 72.5453C96.267 72.0869 97.5136 68.2159 95.2305 65.995L83.2004 54.294C82.7537 53.8596 82.4191 53.3233 82.2253 52.7312C82.0315 52.1392 81.9845 51.5091 82.0881 50.8955L84.8772 34.367Z" fill="#FEB137"/>
  <path d="M108.609 39.8262L130.286 112.068C132.731 120.215 137.694 127.381 144.461 132.535L166.766 149.525L145.188 172.181L117.013 185.784L107.67 159.348C104.835 151.329 99.5328 144.41 92.5262 139.588L30.3922 96.8306C26.2657 93.9869 28.9814 87.5397 33.8873 88.5215L81.826 98.136C87.7529 99.3233 93.4175 95.1949 94.1021 89.1891L99.6285 40.6092C100.196 35.6383 107.165 35.0272 108.609 39.8262Z" fill="#FFF3BE"/>
  <path d="M36.1116 100.764C37.0797 99.9234 38.4206 99.479 39.9858 99.7927L81.9978 108.334C87.9238 109.522 93.5889 105.394 94.2723 99.3881L93.8228 90.6204C92.4747 95.8293 87.2659 99.2246 81.8258 98.1337L33.8884 88.5209C28.9806 87.5366 26.2657 93.9883 30.3924 96.8281L36.1116 100.764ZM108.609 39.8262L130.287 112.068C132.731 120.215 137.694 127.381 144.461 132.535L166.766 149.525L159.642 157.005L155.885 157.455L133.579 140.464C126.813 135.311 121.85 128.145 119.406 120L101.249 59.5056C100.695 57.6723 99.3397 56.633 97.8386 56.3184L99.6287 40.6092C100.196 35.6383 107.165 35.0272 108.609 39.8262Z" fill="#FFEC9C"/>
  <path d="M120.954 138.929C120.128 139.531 119.096 139.779 118.085 139.619C117.074 139.459 116.167 138.905 115.564 138.077L101.92 119.356C101.317 118.528 101.066 117.494 101.224 116.483C101.381 115.472 101.934 114.566 102.76 113.964C103.586 113.362 104.618 113.113 105.628 113.273C106.639 113.433 107.546 113.988 108.15 114.816L121.793 133.537C122.397 134.365 122.648 135.398 122.49 136.409C122.333 137.42 121.78 138.327 120.954 138.929Z" fill="#FEB137"/>
  <path d="M203.18 176.224L171.07 207.694L131.28 228.625L108.854 197.854C107.244 195.644 107.725 192.551 109.929 190.944L173.847 144.361C176.051 142.755 179.143 143.244 180.754 145.453L203.18 176.224L203.18 176.224Z" fill="#BC7C63"/>
  <path d="M203.18 176.224L131.28 228.625L137.396 249.777L182.858 223.868L221.443 188.523L203.18 176.224Z" fill="#FFD15B"/>
  <path d="M230.835 209.795L154.77 265.231C152.566 266.837 149.474 266.348 147.863 264.139L137.396 249.777L221.443 188.523L231.91 202.885C232.684 203.946 233.005 205.27 232.803 206.566C232.601 207.862 231.893 209.023 230.835 209.795Z" fill="#BC7C63"/>
  <path d="M164.108 182.86L149.562 193.461C148.736 194.063 147.704 194.312 146.693 194.152C145.682 193.992 144.775 193.437 144.172 192.609C143.568 191.781 143.318 190.748 143.475 189.737C143.633 188.725 144.185 187.819 145.011 187.217L159.557 176.616C160.383 176.014 161.415 175.766 162.426 175.925C163.437 176.085 164.344 176.64 164.947 177.468C165.551 178.296 165.801 179.329 165.644 180.341C165.486 181.352 164.934 182.258 164.108 182.86Z" fill="#FFD15B"/>
</svg>