<svg xmlns:xlink="http://www.w3.org/1999/xlink" xmlns="http://www.w3.org/2000/svg" viewBox="0 0 40 40" class="ContraBadge___StyledSvg-sc-1ulnhkg-4 cZsUKg" width="40" height="40"><circle cx="20" cy="20" fill="#F2C94B" r="18.5" stroke="#000000" stroke-width="3px"></circle><g fill="#131313"><path d="m13.75 17.7083c1.3807 0 2.5-1.1193 2.5-2.5s-1.1193-2.5-2.5-2.5-2.5 1.1193-2.5 2.5 1.1193 2.5 2.5 2.5z" fill="#131313"></path><path d="m26.25 17.7083c1.3807 0 2.5-1.1193 2.5-2.5s-1.1193-2.5-2.5-2.5-2.5 1.1193-2.5 2.5 1.1193 2.5 2.5 2.5z" fill="#131313"></path><path d="m20 31.6667c-4.375 0-8.3333-2.1875-10.10417-5.7292-.625-1.25-.9375-2.6042-.9375-3.9583h3.02087c0 .9375.2083 1.7708.625 2.6041 1.25 2.5 4.1666 4.0625 7.3958 4.0625 3.3333 0 6.25-1.6666 7.5-4.1666.4167-.8334.5208-1.6667.5208-2.5h3.0209c0 1.3541-.3125 2.6041-.8334 3.75-1.7708 3.6458-5.7291 5.9375-10.2083 5.9375z" fill="#131313"></path></g></svg>