<svg xmlns:xlink="http://www.w3.org/1999/xlink" xmlns="http://www.w3.org/2000/svg" fill="none" viewBox="0 0 100 100" size="150" class="Shape___StyledSvg3-sc-1il8m2q-2 gTnJsw HomeFooter___StyledShapeOctagon-xx8e57-8 eAscic" width="150" height="150"><mask fill="#FFFFFF" id="path-octagon"><path d="M50 100C49.3223 100.001 48.656 99.8254 48.0668 99.4905C47.4776 99.1556 46.9858 98.6729 46.64 98.09C40.7801 88.25 36.0001 84.59 28.8102 84.59C25.305 84.6935 21.8315 85.2859 18.4902 86.35C17.8187 86.5436 17.1076 86.5537 16.4309 86.3791C15.7542 86.2046 15.1367 85.852 14.6425 85.3578C14.1484 84.8636 13.7957 84.2461 13.6212 83.5694C13.4467 82.8927 13.4567 82.1816 13.6503 81.5101C15.7803 74.1701 15.9703 69.0901 14.2703 65.0601C12.5703 61.0301 8.77031 57.4402 1.91036 53.3602C1.3281 53.0136 0.845877 52.5218 0.510979 51.9327C0.176081 51.3437 0 50.6778 0 50.0002C0 49.3226 0.176081 48.6567 0.510979 48.0676C0.845877 47.4786 1.3281 46.9867 1.91036 46.6402C8.77031 42.5602 12.5803 39.0002 14.2703 34.9402C15.9603 30.8803 15.7803 25.8303 13.6503 18.4903C13.4567 17.8188 13.4467 17.1077 13.6212 16.431C13.7957 15.7543 14.1484 15.1367 14.6425 14.6426C15.1367 14.1484 15.7542 13.7957 16.4309 13.6212C17.1076 13.4467 17.8187 13.4568 18.4902 13.6503C21.8315 14.7145 25.305 15.3069 28.8102 15.4103C35.9501 15.4103 40.8101 11.7503 46.64 1.91037C46.9865 1.3281 47.4784 0.845881 48.0675 0.510981C48.6565 0.176081 49.3224 0 50 0C50.6776 0 51.3435 0.176081 51.9325 0.510981C52.5216 0.845881 53.0135 1.3281 53.36 1.91037C59.2199 11.7503 64.0499 15.4103 71.1898 15.4103C74.695 15.3069 78.1685 14.7145 81.5098 13.6503C82.1813 13.4568 82.8924 13.4467 83.5691 13.6212C84.2458 13.7957 84.8633 14.1484 85.3575 14.6426C85.8516 15.1367 86.2043 15.7543 86.3788 16.431C86.5533 17.1077 86.5433 17.8188 86.3497 18.4903C84.2197 25.8303 84.0297 30.9103 85.7297 34.9402C87.4297 38.9702 91.2297 42.5602 98.0896 46.6402C98.6719 46.9867 99.1541 47.4786 99.489 48.0676C99.8239 48.6567 100 49.3226 100 50.0002C100 50.6778 99.8239 51.3437 99.489 51.9327C99.1541 52.5218 98.6719 53.0136 98.0896 53.3602C91.2297 57.4402 87.4197 61.0501 85.7297 65.0601C84.0397 69.0701 84.2197 74.0601 86.2897 81.3301C86.4305 81.7352 86.5015 82.1612 86.4997 82.5901C86.4999 83.6133 86.099 84.5959 85.3829 85.3269C84.6669 86.0579 83.6928 86.4791 82.6698 86.5C82.2777 86.5094 81.8865 86.4588 81.5098 86.35C78.1685 85.2859 74.695 84.6935 71.1898 84.59C64.0499 84.59 59.1899 88.25 53.36 98.09C53.0142 98.6729 52.5224 99.1556 51.9332 99.4905C51.344 99.8254 50.6777 100.001 50 100Z" fill="#FFFFFF"></path></mask><path d="M50 100C49.3223 100.001 48.656 99.8254 48.0668 99.4905C47.4776 99.1556 46.9858 98.6729 46.64 98.09C40.7801 88.25 36.0001 84.59 28.8102 84.59C25.305 84.6935 21.8315 85.2859 18.4902 86.35C17.8187 86.5436 17.1076 86.5537 16.4309 86.3791C15.7542 86.2046 15.1367 85.852 14.6425 85.3578C14.1484 84.8636 13.7957 84.2461 13.6212 83.5694C13.4467 82.8927 13.4567 82.1816 13.6503 81.5101C15.7803 74.1701 15.9703 69.0901 14.2703 65.0601C12.5703 61.0301 8.77031 57.4402 1.91036 53.3602C1.3281 53.0136 0.845877 52.5218 0.510979 51.9327C0.176081 51.3437 0 50.6778 0 50.0002C0 49.3226 0.176081 48.6567 0.510979 48.0676C0.845877 47.4786 1.3281 46.9867 1.91036 46.6402C8.77031 42.5602 12.5803 39.0002 14.2703 34.9402C15.9603 30.8803 15.7803 25.8303 13.6503 18.4903C13.4567 17.8188 13.4467 17.1077 13.6212 16.431C13.7957 15.7543 14.1484 15.1367 14.6425 14.6426C15.1367 14.1484 15.7542 13.7957 16.4309 13.6212C17.1076 13.4467 17.8187 13.4568 18.4902 13.6503C21.8315 14.7145 25.305 15.3069 28.8102 15.4103C35.9501 15.4103 40.8101 11.7503 46.64 1.91037C46.9865 1.3281 47.4784 0.845881 48.0675 0.510981C48.6565 0.176081 49.3224 0 50 0C50.6776 0 51.3435 0.176081 51.9325 0.510981C52.5216 0.845881 53.0135 1.3281 53.36 1.91037C59.2199 11.7503 64.0499 15.4103 71.1898 15.4103C74.695 15.3069 78.1685 14.7145 81.5098 13.6503C82.1813 13.4568 82.8924 13.4467 83.5691 13.6212C84.2458 13.7957 84.8633 14.1484 85.3575 14.6426C85.8516 15.1367 86.2043 15.7543 86.3788 16.431C86.5533 17.1077 86.5433 17.8188 86.3497 18.4903C84.2197 25.8303 84.0297 30.9103 85.7297 34.9402C87.4297 38.9702 91.2297 42.5602 98.0896 46.6402C98.6719 46.9867 99.1541 47.4786 99.489 48.0676C99.8239 48.6567 100 49.3226 100 50.0002C100 50.6778 99.8239 51.3437 99.489 51.9327C99.1541 52.5218 98.6719 53.0136 98.0896 53.3602C91.2297 57.4402 87.4197 61.0501 85.7297 65.0601C84.0397 69.0701 84.2197 74.0601 86.2897 81.3301C86.4305 81.7352 86.5015 82.1612 86.4997 82.5901C86.4999 83.6133 86.099 84.5959 85.3829 85.3269C84.6669 86.0579 83.6928 86.4791 82.6698 86.5C82.2777 86.5094 81.8865 86.4588 81.5098 86.35C78.1685 85.2859 74.695 84.6935 71.1898 84.59C64.0499 84.59 59.1899 88.25 53.36 98.09C53.0142 98.6729 52.5224 99.1556 51.9332 99.4905C51.344 99.8254 50.6777 100.001 50 100Z" mask="url(#path-octagon)" stroke="#FF9E31" stroke-width="4px" fill="none"></path></svg>