<svg xmlns:xlink="http://www.w3.org/1999/xlink" xmlns="http://www.w3.org/2000/svg" class="SocialLink_svg__25Stt" viewBox="0 0 20 17" width="20" height="17"><path d="m20 1.92213c-.7361.32617-1.5259.54738-2.3558.64614.8473-.50742 1.496-1.31225 1.8034-2.268335-.7949.469903-1.6722.811115-2.6071.996085-.7485-.798601-1.8134-1.29602-2.9944-1.29602-2.2658 0-4.10298 1.83716-4.10298 4.10174 0 .32118.03624.63487.10624.93484-3.40935-.17124-6.43252-1.80468-8.45589-4.286742-.3537.604902-.554906 1.309742-.554906 2.062132 0 1.4235.724866 2.67951 1.824676 3.41435-.67239-.02249-1.30477-.20745-1.858402-.51491v.05125c0 1.98712 1.414742 3.64556 3.290622 4.02301-.34369.09248-.70611.14373-1.08104.14373-.26494 0-.52115-.02625-.77236-.07624.52239 1.63094 2.03713 2.81694 3.83181 2.84944-1.4035 1.0998-3.17318 1.7535-5.095306 1.7535-.331177 0-.657387-.02-.978564-.0563 1.81592 1.1661 3.97177 1.8459 6.28883 1.8459 7.54737 0 11.67287-6.2513 11.67287-11.67278l-.0138-.53115c.8061-.57493 1.5034-1.29729 2.0521-2.11964z" fill="#FFFFFF"></path></svg>